<svg width="31" height="29" viewBox="0 0 31 29" fill="none" xmlns="http://www.w3.org/2000/svg">
<path d="M15.5065 7.08794C11.3895 7.08794 8.06875 10.3944 8.06875 14.4936C8.06875 18.5928 11.3895 21.8993 15.5065 21.8993C19.6234 21.8993 22.9442 18.5928 22.9442 14.4936C22.9442 10.3944 19.6234 7.08794 15.5065 7.08794ZM15.5065 19.3083C12.846 19.3083 10.671 17.1491 10.671 14.4936C10.671 11.8381 12.8395 9.67896 15.5065 9.67896C18.1734 9.67896 20.342 11.8381 20.342 14.4936C20.342 17.1491 18.167 19.3083 15.5065 19.3083V19.3083ZM24.9833 6.78501C24.9833 7.74536 24.2065 8.51235 23.2484 8.51235C22.2839 8.51235 21.5136 7.73892 21.5136 6.78501C21.5136 5.8311 22.2904 5.05767 23.2484 5.05767C24.2065 5.05767 24.9833 5.8311 24.9833 6.78501ZM29.9094 8.53813C29.7993 6.22427 29.2685 4.17466 27.5661 2.48599C25.8701 0.797314 23.8116 0.268799 21.4877 0.152783C19.0926 0.0174316 11.9138 0.0174316 9.51875 0.152783C7.20134 0.262354 5.14286 0.790869 3.4404 2.47954C1.73795 4.16821 1.21362 6.21782 1.0971 8.53169C0.961163 10.9165 0.961163 18.0643 1.0971 20.4491C1.20715 22.7629 1.73795 24.8125 3.4404 26.5012C5.14286 28.1899 7.19487 28.7184 9.51875 28.8344C11.9138 28.9698 19.0926 28.9698 21.4877 28.8344C23.8116 28.7249 25.8701 28.1963 27.5661 26.5012C29.2621 24.8125 29.7929 22.7629 29.9094 20.4491C30.0453 18.0643 30.0453 10.9229 29.9094 8.53813V8.53813ZM26.8152 23.0079C26.3103 24.2711 25.3328 25.2444 24.0576 25.7536C22.148 26.5077 17.6167 26.3336 15.5065 26.3336C13.3962 26.3336 8.85848 26.5012 6.95536 25.7536C5.68661 25.2508 4.70915 24.2776 4.19777 23.0079C3.4404 21.1065 3.61518 16.5948 3.61518 14.4936C3.61518 12.3924 3.44688 7.87427 4.19777 5.97935C4.70268 4.71606 5.68014 3.74282 6.95536 3.23364C8.86496 2.47954 13.3962 2.65356 15.5065 2.65356C17.6167 2.65356 22.1545 2.48599 24.0576 3.23364C25.3263 3.73638 26.3038 4.70962 26.8152 5.97935C27.5725 7.88071 27.3978 12.3924 27.3978 14.4936C27.3978 16.5948 27.5725 21.1129 26.8152 23.0079Z" fill="#D60026"/>
</svg>
