<svg width="72" height="58" viewBox="0 0 72 58" fill="none" xmlns="http://www.w3.org/2000/svg">
<path d="M33.1904 46.9981H32.3857C31.9706 46.8863 31.5819 46.6922 31.2426 46.427C30.9034 46.1619 30.6204 45.8312 30.4104 45.4544C30.2004 45.0776 30.0676 44.6624 30.0199 44.2332C29.9722 43.804 30.0105 43.3696 30.1326 42.9555L36.5701 14.0107C36.6029 13.5358 36.7395 13.0741 36.9703 12.6584C37.2011 12.2428 37.5204 11.8834 37.9053 11.606C38.2903 11.3286 38.7314 11.14 39.1973 11.0537C39.6632 10.9673 40.1423 10.9853 40.6004 11.1065C41.0585 11.2276 41.4844 11.4489 41.8476 11.7544C42.2108 12.06 42.5024 12.4423 42.7016 12.8742C42.9008 13.306 43.0027 13.7768 42.9999 14.2527C42.9972 14.7287 42.8899 15.1982 42.6858 15.6277L36.2483 44.7343C36.0672 45.4027 35.6667 45.9901 35.1116 46.4011C34.5565 46.812 33.8795 47.0224 33.1904 46.9981Z" fill="#D60026"/>
<path d="M24.5596 39.9999C25.1962 39.9924 25.8156 39.7861 26.3362 39.4082C26.8568 39.0302 27.2541 38.4983 27.4757 37.8827C27.6974 37.2671 27.733 36.5966 27.5778 35.9597C27.4226 35.3228 27.0839 34.7494 26.6064 34.3151L19.8363 28.6302L26.6064 22.9454C26.9768 22.6889 27.2901 22.3541 27.5255 21.9633C27.761 21.5724 27.9133 21.1344 27.9723 20.6783C28.0313 20.2221 27.9957 19.7583 27.8679 19.3174C27.74 18.8765 27.5228 18.4687 27.2307 18.1209C26.9385 17.7732 26.5781 17.4934 26.1732 17.3002C25.7684 17.107 25.3284 17.0047 24.8823 17.0002C24.4363 16.9956 23.9943 17.0889 23.5859 17.2738C23.1774 17.4587 22.8116 17.731 22.5128 18.0727L13.0661 26.1939C12.731 26.4987 12.4627 26.8736 12.2789 27.2937C12.0951 27.7137 12 28.1694 12 28.6302C12 29.0911 12.0951 29.5467 12.2789 29.9668C12.4627 30.3868 12.731 30.7617 13.0661 31.0666L22.5128 39.1878C23.0709 39.716 23.8023 40.0062 24.5596 39.9999Z" fill="#D60026"/>
<path d="M47.1781 39.9999C46.5283 39.9926 45.896 39.7907 45.3645 39.4208C44.833 39.0509 44.4274 38.5303 44.2012 37.9278C43.9749 37.3253 43.9386 36.6691 44.097 36.0458C44.2554 35.4225 44.6011 34.8612 45.0886 34.4362L52.0001 28.8724L45.0886 23.3087C44.5632 22.7327 44.2689 21.9865 44.2611 21.2108C44.2534 20.4351 44.5326 19.6833 45.0464 19.0971C45.5601 18.5108 46.2728 18.1306 47.0503 18.028C47.8278 17.9253 48.6164 18.1074 49.2677 18.5398L58.9116 26.488C59.2537 26.7863 59.5277 27.1533 59.7153 27.5644C59.903 27.9755 60 28.4214 60 28.8724C60 29.3235 59.903 29.7694 59.7153 30.1805C59.5277 30.5916 59.2537 30.9586 58.9116 31.2569L49.2677 39.2051C48.698 39.7221 47.9513 40.0061 47.1781 39.9999Z" fill="#D60026"/>
<path d="M68.7273 0H3.27273C2.40475 0 1.57231 0.339483 0.958559 0.943767C0.344804 1.54805 0 2.36764 0 3.22222V54.7778C0 55.6324 0.344804 56.452 0.958559 57.0562C1.57231 57.6605 2.40475 58 3.27273 58H68.7273C69.5953 58 70.4277 57.6605 71.0414 57.0562C71.6552 56.452 72 55.6324 72 54.7778V3.22222C72 2.36764 71.6552 1.54805 71.0414 0.943767C70.4277 0.339483 69.5953 0 68.7273 0ZM65.4545 51.5556H6.54545V6.44444H65.4545V51.5556Z" fill="#D60026"/>
</svg>
