<svg width="29" height="22" viewBox="0 0 29 22" fill="none" xmlns="http://www.w3.org/2000/svg">
<path d="M26.2812 0C27.7822 0 29 1.2312 29 2.75C29 3.6151 28.5979 4.42865 27.9125 4.95L15.5875 14.3C14.9418 14.787 14.0582 14.787 13.4125 14.3L1.0875 4.95C0.402885 4.42865 0 3.6151 0 2.75C0 1.2312 1.21721 0 2.71875 0H26.2812ZM12.325 15.7667C13.6164 16.7464 15.3836 16.7464 16.675 15.7667L29 6.41667V18.3333C29 20.3557 27.3744 22 25.375 22H3.625C1.62275 22 0 20.3557 0 18.3333V6.41667L12.325 15.7667Z" fill="#D60026"/>
</svg>
