<svg width="64" height="64" viewBox="0 0 64 64" fill="none" xmlns="http://www.w3.org/2000/svg">
<path d="M51.0843 4.70127C52.1734 3.61196 53.6511 3 55.1913 3C56.7318 3 58.2095 3.61196 59.2987 4.70127C60.3881 5.79061 61 7.26803 61 8.80854C61 10.3491 60.3881 11.8265 59.2987 12.9158L33.286 38.9284L22.3333 41.6667L25.0715 30.714L51.0843 4.70127Z" stroke="#D60026" stroke-width="5" stroke-linecap="round" stroke-linejoin="round"/>
<path d="M44.8889 12.6667L51.3333 19.1111" stroke="#D60026" stroke-width="5" stroke-linecap="round" stroke-linejoin="round"/>
<path d="M33.6111 3H32C15.9838 3 3 15.9838 3 32C3 48.0164 15.9838 61 32 61C48.0164 61 61 48.0164 61 32V30.3889" stroke="#D60026" stroke-width="5" stroke-linecap="round"/>
</svg>
