<?xml version="1.0" encoding="utf-8"?>
<!-- Generator: Adobe Illustrator 27.1.1, SVG Export Plug-In . SVG Version: 6.00 Build 0)  -->
<svg version="1.1" id="Capa_1" xmlns="http://www.w3.org/2000/svg" xmlns:xlink="http://www.w3.org/1999/xlink" x="0px" y="0px"
	 viewBox="0 0 36 42" style="enable-background:new 0 0 36 42;" xml:space="preserve">
<style type="text/css">
	.st0{fill:#D60026;}
</style>
<path class="st0" d="M0.9,21.8c0.6-0.6,1.4-0.9,2.1-0.9c0.8,0,1.5,0.3,2.1,0.9l9.9,9.9V2.9C15,1.3,16.3,0,17.9,0
	C19.5,0,21,1.3,21,2.9v28.8l9.9-9.9c1.2-1.2,3.1-1.2,4.2,0c1.2,1.2,1.2,3.1,0,4.2l-15,15c-1.2,1.2-3.1,1.2-4.2,0l-15-15
	C-0.3,24.9-0.3,23,0.9,21.8z"/>
</svg>
