<svg width="25" height="25" viewBox="0 0 25 25" fill="none" xmlns="http://www.w3.org/2000/svg">
<path d="M21.2025 3.68332C18.9168 1.33927 15.7976 0 12.4405 0C5.63089 0 0.0595819 5.58096 0.0595819 12.3881C0.0595819 14.6202 0.666608 16.7405 1.72613 18.5821L0 25L6.52379 23.3262C8.36902 24.275 10.3809 24.8321 12.4405 24.8321C19.3095 24.8321 25 19.2524 25 12.444C25 9.09643 23.5477 6.02618 21.2025 3.68332ZM12.4405 22.7119C10.6071 22.7119 8.82149 22.2095 7.20244 21.2607L6.86907 21.0381L2.95236 22.0976L4.02381 18.3036L3.73811 17.9131C2.73811 16.2393 2.17852 14.3417 2.17852 12.3881C2.17852 6.75239 6.80952 2.12025 12.5 2.12025C15.2381 2.12025 17.7976 3.18096 19.75 5.13335C21.7024 7.08692 22.881 9.65357 22.881 12.444C22.881 18.081 18.131 22.7119 12.4405 22.7119ZM18.131 15.0107C17.7976 14.844 16.2976 14.1179 16.0119 14.0071C15.7381 13.8952 15.5119 13.8393 15.2857 14.1738C15.119 14.4536 14.5119 15.1786 14.3452 15.4024C14.119 15.569 13.9524 15.625 13.6667 15.4571C11.8333 14.5643 10.6548 13.8393 9.42862 11.775C9.09529 11.2167 9.76195 11.2726 10.3215 10.1C10.4405 9.87739 10.381 9.70951 10.3215 9.54285C10.262 9.37499 9.59525 7.86785 9.38095 7.25475C9.09525 6.64046 8.86907 6.69643 8.65479 6.69643C8.47621 6.69643 8.26196 6.69643 8.0953 6.69643C7.86911 6.69643 7.53568 6.75238 7.24996 7.08691C6.97615 7.42143 6.19042 8.14763 6.19042 9.65358C6.19042 11.2167 7.24998 12.6679 7.41664 12.8905C7.59521 13.0583 9.59517 16.1833 12.7261 17.5226C14.6785 18.4155 15.4524 18.4714 16.4643 18.3036C17.0238 18.2476 18.2501 17.5786 18.5239 16.8524C18.8096 16.1274 18.8095 15.5131 18.6905 15.4024C18.6429 15.2345 18.4167 15.1786 18.131 15.0107Z" fill="#D60026"/>
</svg>
