<svg width="76" height="58" viewBox="0 0 76 58" fill="none" xmlns="http://www.w3.org/2000/svg">
<path d="M58.1264 54.3291H49.8741C49.5762 54.3291 49.333 54.0861 49.333 53.788V51.7793C49.333 51.4816 49.0895 51.2382 48.7918 51.2382H37.2446C36.9468 51.2382 36.7033 51.4816 36.7033 51.7793V53.788C36.7033 54.0861 36.4599 54.3291 36.162 54.3291H29.9581C29.6603 54.3291 29.4168 54.5726 29.4168 54.8703V57.194C29.4168 57.4917 29.6603 57.7352 29.9581 57.7352H58.126C58.4237 57.7352 58.6671 57.4917 58.6671 57.194V54.8703C58.6675 54.5732 58.4241 54.3291 58.1264 54.3291Z" fill="#D60026"/>
<path d="M71.9911 0H13.1047C11.0559 0 9.38917 1.66692 9.38917 3.7161C9.38917 3.7161 9.38917 10.8018 9.38917 13.4085C9.38917 14.6899 9.29408 14.8711 10.1537 14.8711C10.6102 14.8711 11.1159 14.8711 11.6278 14.8711C12.3491 14.8711 12.2012 14.6899 12.2012 13.3846C12.2012 10.7838 12.2012 3.7161 12.2012 3.7161C12.2012 3.22634 12.6151 2.81238 13.1047 2.81238H71.9911C72.4804 2.81238 72.8944 3.22634 72.8944 3.7161V39.9948H30.9121C30.9121 39.9948 29.4325 39.9921 29.4325 41.9054C29.4325 43.0397 29.4325 45.3085 29.4325 46.4433C29.4325 48.3538 30.96 48.3538 30.96 48.3538H71.9911C74.0397 48.3538 75.707 46.6871 75.707 44.6383V3.7161C75.707 1.66711 74.04 0 71.9911 0ZM42.5481 45.1454C41.623 45.1454 40.8733 44.3958 40.8733 43.4713C40.8733 42.5467 41.623 41.7967 42.5481 41.7967C43.4722 41.7967 44.2221 42.5467 44.2221 43.4713C44.2221 44.3958 43.4722 45.1454 42.5481 45.1454Z" fill="#D60026"/>
<path d="M23.7006 18.19H2.39803C1.07538 18.19 0 19.2656 0 20.5882V55.6016C0 56.924 1.07538 58 2.39803 58H23.7006C25.0225 58 26.0986 56.924 26.0986 55.6016V20.5882C26.0986 19.2656 25.0225 18.19 23.7006 18.19ZM10.4216 20.636H15.6769C15.9276 20.636 16.1313 20.8391 16.1313 21.0906C16.1313 21.3415 15.9278 21.5448 15.6769 21.5448H10.4216C10.1705 21.5448 9.96733 21.3415 9.96733 21.0906C9.96733 20.8391 10.1705 20.636 10.4216 20.636ZM13.0174 56.3155C12.332 56.3155 11.7763 55.7598 11.7763 55.0744C11.7763 54.3889 12.332 53.8332 13.0174 53.8332C13.7029 53.8332 14.2586 54.3889 14.2586 55.0744C14.2586 55.7598 13.7029 56.3155 13.0174 56.3155ZM24.0382 52.6677C24.0382 52.9878 23.7819 53.2495 23.4692 53.2495H2.63003C2.31707 53.2495 2.06102 52.9878 2.06102 52.6677V23.573C2.06102 23.253 2.31727 22.9914 2.63003 22.9914H23.4692C23.7821 22.9914 24.0382 23.2532 24.0382 23.573V52.6677Z" fill="#D60026"/>
</svg>
