<svg width="29" height="29" viewBox="0 0 29 29" fill="none" xmlns="http://www.w3.org/2000/svg">
<path d="M6.49134 28.8753H0.479018V9.5974H6.49134V28.8753ZM3.48194 6.96771C1.5594 6.96771 0 5.38217 0 3.46791C1.37608e-08 2.54842 0.366846 1.66659 1.01984 1.01642C1.67283 0.366242 2.55847 0.000976562 3.48194 0.000976562C4.40541 0.000976562 5.29106 0.366242 5.94405 1.01642C6.59704 1.66659 6.96388 2.54842 6.96388 3.46791C6.96388 5.38217 5.40384 6.96771 3.48194 6.96771ZM28.9935 28.8753H22.9942V19.491C22.9942 17.2544 22.9488 14.3863 19.8682 14.3863C16.7423 14.3863 16.2633 16.8162 16.2633 19.3298V28.8753H10.2575V9.5974H16.0238V12.2271H16.1079C16.9106 10.7124 18.8714 9.114 21.7966 9.114C27.8814 9.114 29 13.1037 29 18.2857V28.8753H28.9935Z" fill="#D60026"/>
</svg>
