<?xml version="1.0" encoding="utf-8"?>
<!-- Generator: Adobe Illustrator 27.1.1, SVG Export Plug-In . SVG Version: 6.00 Build 0)  -->
<svg version="1.1" id="Capa_1" xmlns="http://www.w3.org/2000/svg" xmlns:xlink="http://www.w3.org/1999/xlink" x="0px" y="0px"
	 viewBox="0 0 226 45" style="enable-background:new 0 0 226 45;" xml:space="preserve">
<style type="text/css">
	.st0{fill:none;}
	.st1{fill:#706F6F;}
	.st2{fill:#D60026;}
</style>
<rect y="0" class="st0" width="225.6" height="44.6"/>
<path class="st1" d="M66.6,13.9c-0.5-0.5-2-1.1-3.5-1.1c-2.7,0-4.2,1.4-4.2,3.6c0,2.7,1.5,4,4,4c1.7,0,2.9-0.3,3.9-0.9h0.1v1.7
	c0,2.1-2.2,3.8-5.1,3.8c-4.9,0-8.3-3.3-8.3-8.3c0-4.6,3.2-8.5,8.8-8.5c2.5,0,4.6,1.7,4.6,3.7v1.9L66.6,13.9L66.6,13.9z"/>
<path class="st1" d="M76.3,25.1c-5.2,0-8-2.5-8-7.7V8.7h2.2c2.4,0,3.5,0.8,3.5,3.3v5.7c0,2.4,1.1,3.1,2.6,3.1c1.3,0,2.4-0.8,2.4-3.3
	V8.7h2c2.2,0,3.4,0.9,3.4,3.3v5.7C84.5,22.8,81.2,25.1,76.3,25.1z"/>
<path class="st1" d="M93.3,25.1c-3.1,0-6.8-1.5-6.8-5.1c0-3.5,2.6-5.4,8.4-5.4h0.8V14c0-1.3-1-1.6-3.2-1.6c-3,0-4.1,0.7-5.2,1.7H87
	v-1.9c0-2,2.1-4,6.6-4c4.4,0,7.3,2.2,7.3,7v2.5C100.9,23.4,99.1,25.1,93.3,25.1z M95.7,18.1h-1.1c-2.1,0-2.9,0.5-2.9,1.6
	c0,1,0.6,1.5,2.2,1.5c1,0,1.9-0.5,1.9-1.9v-1.2H95.7z"/>
<path class="st1" d="M105.1,5.8c0.7-0.6,1.7-1.1,2.9-1.1h0.6v3.9h4.7v1.9c0,1.4-1.5,2.4-2.7,2.4h-2v5.8c0,1.1,0.7,1.7,1.7,1.7
	c1.3,0,1.9-0.1,2.5-0.3h0.1v2.2c0,1.3-1.2,2.6-4.1,2.6c-2.7,0-5.7-1.3-5.7-5.7V9.3C103.2,7.8,104,6.7,105.1,5.8z"/>
<path class="st1" d="M124.2,12.8c-0.7-0.3-1.2-0.3-2-0.3c-1.3,0-2.4,0.7-2.4,2.6v9.6h-1.5c-2.4,0-3.8-1.1-3.8-3.8v-7
	c0-3.2,2.2-5.8,5.8-5.8c2.8,0,4,1.1,4,2.6v2h-0.1V12.8z"/>
<path class="st1" d="M133.5,8.2c4.4,0,8.3,3.3,8.3,8.3c0,5.2-3.2,8.6-8.7,8.6c-4.6,0-8.3-3.4-8.3-8.1
	C124.8,11.7,128.5,8.2,133.5,8.2z M133.2,12.6c-1.5,0-2.9,1.6-2.9,3.8c0,3.1,1.2,4.4,3.2,4.4c1.7,0,2.9-1.6,2.9-3.8
	C136.4,14.1,135.1,12.6,133.2,12.6z"/>
<path class="st2" d="M152.6,24.9h-1.5c-1.8,0-2.7-0.9-3.6-2.3c-2.2-3.3-4.4-9.2-5.1-13.9h2.9c1.8,0,2.9,1.3,3.1,2.3
	c0.5,2.6,1.9,6.3,2.6,7.7c1-1.9,2.4-6.4,3-10h2.6c1.4,0,2.2,0.8,2.2,2.2c0,1.2-0.4,2.3-0.8,3.4C157.2,17.3,154.5,22.8,152.6,24.9z"
	/>
<path class="st2" d="M163.1,7.8c-1.6,0-2.9-1.2-2.9-2.7s1.3-2.7,2.9-2.7c1.6,0,2.9,1.1,2.9,2.6S164.7,7.8,163.1,7.8z M165.8,24.9
	c-2.9,0-5.2-1.5-5.2-5.2V9.2h1.4c3.1,0,4.2,0.9,4.2,3.8v5.9c0,1.4,0.7,1.9,2.2,1.9h0.7v1.6C168.9,24.3,167.5,24.9,165.8,24.9z"/>
<path class="st2" d="M176,25.1c-4.4,0-5.9-1.6-5.9-3.9v-1.6h0.1c1,0.8,2.6,1.4,4.9,1.4c2,0,2.6-0.5,2.6-1.3c0-0.7-0.4-1-3.7-1.5
	c-2.9-0.4-4.4-1.7-4.4-4.3c0-3.8,3.6-5.8,7.3-5.8c3.5,0,5.7,1.4,5.7,3.8v1.7h-0.1c-1.1-0.8-2.8-1.3-4.9-1.3c-2.1,0-2.7,0.6-2.7,1.2
	s0.3,0.8,3.7,1.4c2.7,0.4,4.5,1.9,4.5,4.6C183,23,180.4,25.1,176,25.1z"/>
<path class="st2" d="M187.1,5.8c0.7-0.6,1.7-1.1,2.9-1.1h0.6v3.9h4.7v1.9c0,1.4-1.5,2.4-2.7,2.4h-2v5.8c0,1.1,0.7,1.7,1.7,1.7
	c1.3,0,1.9-0.1,2.5-0.3h0.1v2.2c0,1.3-1.2,2.6-4.1,2.6c-2.7,0-5.7-1.3-5.7-5.7V9.3C185.1,7.8,186,6.7,187.1,5.8z"/>
<path class="st2" d="M202.8,25.1c-3.1,0-6.8-1.5-6.8-5.1c0-3.5,2.6-5.4,8.4-5.4h0.8V14c0-1.3-1-1.6-3.2-1.6c-3,0-4.1,0.7-5.2,1.7
	h-0.1v-1.9c0-2,2.1-4,6.6-4c4.4,0,7.3,2.2,7.3,7v2.5C210.5,23.4,208.6,25.1,202.8,25.1z M205.3,18.1h-1.1c-2.1,0-2.9,0.5-2.9,1.6
	c0,1,0.6,1.5,2.2,1.5c1,0,1.9-0.5,1.9-1.9L205.3,18.1L205.3,18.1z"/>
<path class="st2" d="M218.6,25.1c-4.4,0-5.9-1.6-5.9-3.9v-1.6h0.1c1,0.8,2.6,1.4,4.9,1.4c2,0,2.6-0.5,2.6-1.3c0-0.7-0.4-1-3.7-1.5
	c-2.9-0.4-4.4-1.7-4.4-4.3c0-3.8,3.6-5.8,7.3-5.8c3.5,0,5.7,1.4,5.7,3.8v1.7h-0.1c-1.1-0.8-2.8-1.3-4.9-1.3c-2.1,0-2.7,0.6-2.7,1.2
	s0.3,0.8,3.7,1.4c2.7,0.4,4.5,1.9,4.5,4.6C225.6,23,223,25.1,218.6,25.1z"/>
<g>
	<path class="st2" d="M44.5,24c0-0.6,0.1-1.1,0.1-1.7C44.6,10,34.6,0,22.3,0S0,10,0,22.3s10,22.3,22.3,22.3c5.1,0,9.9-1.8,13.6-4.7
		c1.8,2.8,5,4.7,8.6,4.7c5.7,0,10.3-4.6,10.3-10.3S50.2,24,44.5,24z M22.2,37.7c-9.6,0-17.4-7.8-17.4-17.4S12.6,2.9,22.2,2.9
		c9.7,0,17.5,7.8,17.5,17.4S31.9,37.7,22.2,37.7z M44.6,37.7c-3,0-5.4-2.4-5.4-5.4s2.4-5.4,5.4-5.4c2.9,0,5.4,2.4,5.4,5.4
		S47.6,37.7,44.6,37.7z"/>
</g>
<path class="st1" d="M60.3,30.6h2.3c0.5,0,1,0.1,1.5,0.3c0.4,0.2,0.8,0.4,1.1,0.7c0.3,0.3,0.6,0.7,0.7,1.1c0.2,0.4,0.3,0.9,0.3,1.3
	c0,0.5-0.1,0.9-0.3,1.3c-0.2,0.4-0.4,0.8-0.7,1.1c-0.3,0.3-0.7,0.5-1.1,0.7c-0.4,0.2-0.9,0.3-1.5,0.3h-2.3V30.6z M62.5,36.9
	c0.5,0,0.9-0.1,1.3-0.2c0.4-0.2,0.7-0.4,1-0.6c0.3-0.2,0.5-0.6,0.6-0.9s0.2-0.7,0.2-1.1c0-0.4-0.1-0.8-0.2-1.1
	c-0.1-0.4-0.4-0.7-0.6-0.9c-0.3-0.3-0.6-0.5-1-0.6C63.4,31.1,63,31,62.5,31h-1.8v5.9H62.5z"/>
<path class="st1" d="M70.3,30.6h4.8V31h-4.3v2.7h3.9v0.5h-3.9v2.7h4.4v0.5h-4.9V30.6z"/>
<path class="st1" d="M81.5,37.4c-0.5,0-1-0.1-1.5-0.3c-0.5-0.2-0.9-0.5-1.3-0.8l0.3-0.4c0.2,0.2,0.4,0.3,0.6,0.5
	c0.2,0.1,0.4,0.2,0.6,0.3c0.2,0.1,0.4,0.1,0.6,0.2C81,37,81.2,37,81.5,37s0.5,0,0.7-0.1c0.2-0.1,0.4-0.2,0.5-0.3
	c0.1-0.1,0.3-0.3,0.3-0.4c0-0.1,0.1-0.3,0.1-0.5s0-0.3-0.1-0.5c-0.1-0.1-0.2-0.3-0.3-0.4c-0.1-0.1-0.3-0.2-0.6-0.3
	c-0.2-0.1-0.6-0.2-1-0.3c-0.4-0.1-0.8-0.2-1-0.3c-0.2-0.1-0.5-0.2-0.7-0.4c-0.2-0.2-0.3-0.3-0.4-0.5s-0.1-0.4-0.1-0.7
	s0.1-0.5,0.2-0.7c0.1-0.2,0.3-0.4,0.5-0.6c0.2-0.2,0.4-0.3,0.7-0.4c0.3-0.1,0.6-0.1,0.9-0.1c0.5,0,0.9,0.1,1.3,0.2
	c0.4,0.1,0.7,0.3,1.1,0.6l-0.3,0.4c-0.3-0.3-0.6-0.5-1-0.6c-0.4-0.1-0.7-0.2-1.1-0.2c-0.3,0-0.5,0-0.7,0.1s-0.4,0.2-0.5,0.3
	c-0.1,0.1-0.3,0.3-0.3,0.4c0,0.1-0.1,0.3-0.1,0.5s0,0.3,0.1,0.5c0.1,0.1,0.2,0.3,0.3,0.4c0.1,0.1,0.3,0.2,0.6,0.3
	c0.3,0.1,0.6,0.2,1,0.3c0.8,0.2,1.4,0.4,1.7,0.7c0.3,0.3,0.5,0.7,0.5,1.2c0,0.3-0.1,0.5-0.2,0.8c-0.1,0.2-0.3,0.4-0.5,0.6
	c-0.2,0.2-0.4,0.3-0.7,0.4C82.1,37.4,81.8,37.4,81.5,37.4z"/>
<path class="st1" d="M90.4,30.5h0.5l3.2,6.8h-0.6l-0.9-1.9h-4l-0.9,1.9h-0.5L90.4,30.5z M92.4,35l-1.8-3.9L88.8,35H92.4z"/>
<path class="st1" d="M97.9,30.6h2.9c0.4,0,0.8,0.1,1.1,0.2c0.3,0.1,0.6,0.3,0.8,0.5c0.2,0.2,0.3,0.4,0.4,0.6s0.1,0.4,0.1,0.7
	c0,0.3,0,0.5-0.2,0.8c-0.1,0.2-0.2,0.4-0.4,0.6c-0.2,0.2-0.4,0.3-0.6,0.4c-0.2,0.1-0.5,0.2-0.8,0.2l2.2,2.9h-0.6l-2.2-2.8h-2.2v2.8
	h-0.5V30.6z M100.7,34.1c0.3,0,0.5,0,0.8-0.1c0.2-0.1,0.5-0.2,0.6-0.3c0.2-0.1,0.3-0.3,0.4-0.5s0.2-0.4,0.2-0.7
	c0-0.5-0.2-0.8-0.5-1.1c-0.3-0.3-0.8-0.4-1.4-0.4h-2.3v3.1H100.7z"/>
<path class="st1" d="M107.3,30.6h2.9c0.4,0,0.8,0.1,1.1,0.2c0.3,0.1,0.6,0.3,0.8,0.5c0.2,0.2,0.3,0.4,0.4,0.6s0.1,0.4,0.1,0.7
	c0,0.3,0,0.5-0.2,0.8c-0.1,0.2-0.2,0.4-0.4,0.6s-0.4,0.3-0.6,0.4c-0.2,0.1-0.5,0.2-0.8,0.2l2.2,2.9h-0.6l-2.2-2.8h-2.2v2.8h-0.5
	V30.6z M110.1,34.1c0.3,0,0.5,0,0.8-0.1c0.2-0.1,0.5-0.2,0.6-0.3c0.2-0.1,0.3-0.3,0.4-0.5s0.2-0.4,0.2-0.7c0-0.5-0.2-0.8-0.5-1.1
	c-0.3-0.3-0.8-0.4-1.4-0.4h-2.3v3.1H110.1z"/>
<path class="st1" d="M119.9,37.5c-0.5,0-1-0.1-1.4-0.3s-0.8-0.4-1.1-0.8c-0.3-0.3-0.5-0.7-0.7-1.1c-0.2-0.4-0.2-0.9-0.2-1.3
	c0-0.5,0.1-0.9,0.2-1.3c0.1-0.4,0.4-0.8,0.7-1.1c0.3-0.3,0.7-0.6,1.1-0.8c0.4-0.2,0.9-0.3,1.4-0.3s1,0.1,1.4,0.3
	c0.4,0.2,0.8,0.4,1.1,0.8c0.3,0.3,0.5,0.7,0.7,1.1c0.2,0.4,0.2,0.9,0.2,1.3c0,0.5-0.1,0.9-0.2,1.3c-0.2,0.4-0.4,0.8-0.7,1.1
	c-0.3,0.3-0.7,0.6-1.1,0.8C120.9,37.4,120.4,37.5,119.9,37.5z M119.9,37c0.4,0,0.8-0.1,1.2-0.2c0.4-0.2,0.7-0.4,0.9-0.6
	c0.3-0.3,0.5-0.6,0.6-1c0.1-0.4,0.2-0.8,0.2-1.2s-0.1-0.8-0.2-1.2c-0.1-0.4-0.3-0.7-0.6-1s-0.6-0.5-0.9-0.7
	c-0.4-0.2-0.7-0.2-1.2-0.2s-0.8,0.1-1.2,0.2c-0.4,0.1-0.7,0.4-0.9,0.7c-0.3,0.3-0.5,0.6-0.6,1c-0.1,0.4-0.2,0.8-0.2,1.2
	s0.1,0.8,0.2,1.2c0.1,0.4,0.3,0.7,0.6,1c0.3,0.3,0.6,0.5,0.9,0.7C119,37.1,119.5,37,119.9,37z"/>
<path class="st1" d="M127.5,30.6h0.5v6.3h4v0.5h-4.5V30.6z"/>
<path class="st1" d="M135.9,30.6h0.5v6.3h4v0.5h-4.5V30.6z"/>
<path class="st1" d="M147.4,37.5c-0.5,0-1-0.1-1.4-0.3s-0.8-0.4-1.1-0.8c-0.3-0.3-0.5-0.7-0.7-1.1c-0.2-0.4-0.2-0.9-0.2-1.3
	c0-0.5,0.1-0.9,0.2-1.3c0.1-0.4,0.4-0.8,0.7-1.1c0.3-0.3,0.7-0.6,1.1-0.8c0.4-0.2,0.9-0.3,1.4-0.3s1,0.1,1.4,0.3
	c0.4,0.2,0.8,0.4,1.1,0.8c0.3,0.3,0.5,0.7,0.7,1.1c0.2,0.4,0.2,0.9,0.2,1.3c0,0.5-0.1,0.9-0.2,1.3c-0.2,0.4-0.4,0.8-0.7,1.1
	c-0.3,0.3-0.7,0.6-1.1,0.8C148.4,37.4,147.9,37.5,147.4,37.5z M147.4,37c0.4,0,0.8-0.1,1.2-0.2c0.4-0.2,0.7-0.4,0.9-0.6
	c0.3-0.3,0.5-0.6,0.6-1c0.1-0.4,0.2-0.8,0.2-1.2s-0.1-0.8-0.2-1.2c-0.1-0.4-0.3-0.7-0.6-1s-0.6-0.5-0.9-0.7
	c-0.4-0.2-0.7-0.2-1.2-0.2c-0.4,0-0.8,0.1-1.2,0.2c-0.4,0.1-0.7,0.4-0.9,0.7c-0.3,0.3-0.5,0.6-0.6,1c-0.1,0.4-0.2,0.8-0.2,1.2
	s0.1,0.8,0.2,1.2c0.1,0.4,0.3,0.7,0.6,1s0.6,0.5,0.9,0.7C146.5,37.1,147,37,147.4,37z"/>
<path class="st1" d="M160.3,30.6h2.3c0.5,0,1,0.1,1.5,0.3c0.4,0.2,0.8,0.4,1.1,0.7c0.3,0.3,0.6,0.7,0.7,1.1c0.2,0.4,0.3,0.9,0.3,1.3
	c0,0.5-0.1,0.9-0.3,1.3c-0.2,0.4-0.4,0.8-0.7,1.1c-0.3,0.3-0.7,0.5-1.1,0.7c-0.4,0.2-0.9,0.3-1.5,0.3h-2.3V30.6z M162.6,36.9
	c0.5,0,0.9-0.1,1.3-0.2c0.4-0.1,0.7-0.4,1-0.6c0.3-0.3,0.5-0.6,0.6-0.9s0.2-0.7,0.2-1.1c0-0.4-0.1-0.8-0.2-1.1
	c-0.1-0.4-0.4-0.7-0.6-0.9c-0.3-0.3-0.6-0.5-1-0.6c-0.4-0.1-0.8-0.2-1.3-0.2h-1.8v5.9h1.8V36.9z"/>
<path class="st1" d="M170.3,30.6h4.8V31h-4.3v2.7h3.9v0.5h-3.9v2.7h4.4v0.5h-4.9V30.6z"/>
<path class="st1" d="M184.7,30.6h0.5v6.8h-0.5V30.6z"/>
<path class="st1" d="M189.7,30.6h2.3c0.5,0,1,0.1,1.5,0.3c0.5,0.2,0.8,0.4,1.1,0.7c0.3,0.3,0.6,0.7,0.7,1.1c0.1,0.4,0.3,0.9,0.3,1.3
	c0,0.5-0.1,0.9-0.3,1.3c-0.2,0.4-0.4,0.8-0.7,1.1c-0.3,0.3-0.7,0.5-1.1,0.7c-0.4,0.2-0.9,0.3-1.5,0.3h-2.3V30.6z M191.9,36.9
	c0.5,0,0.9-0.1,1.3-0.2c0.4-0.2,0.7-0.4,1-0.6c0.3-0.3,0.5-0.6,0.6-0.9c0.1-0.3,0.2-0.7,0.2-1.1c0-0.4-0.1-0.8-0.2-1.1
	c-0.1-0.4-0.4-0.7-0.6-0.9c-0.3-0.3-0.6-0.5-1-0.6c-0.4-0.2-0.8-0.2-1.3-0.2h-1.8v5.9h1.8V36.9z"/>
<path class="st1" d="M199.7,30.6h4.8V31h-4.3v2.7h3.9v0.5h-3.9v2.7h4.4v0.5h-4.9V30.6z"/>
<path class="st1" d="M211.2,30.5h0.5l3.2,6.8h-0.6l-0.9-1.9h-4l-0.9,1.9H208L211.2,30.5z M213.2,35l-1.8-3.9l-1.8,3.9H213.2z"/>
<path class="st1" d="M221,37.4c-0.5,0-1-0.1-1.5-0.3c-0.5-0.2-0.9-0.5-1.3-0.8l0.3-0.4c0.2,0.2,0.4,0.3,0.6,0.5
	c0.2,0.1,0.4,0.2,0.6,0.3c0.2,0.1,0.4,0.1,0.6,0.2c0.2,0,0.4,0.1,0.7,0.1s0.5,0,0.7-0.1c0.2-0.1,0.4-0.2,0.5-0.3
	c0.1-0.1,0.3-0.3,0.3-0.4c0-0.1,0.1-0.3,0.1-0.5s0-0.3-0.1-0.5c-0.1-0.1-0.2-0.3-0.3-0.4c-0.1-0.1-0.3-0.2-0.6-0.3
	c-0.2-0.1-0.6-0.2-1-0.3c-0.4-0.1-0.8-0.2-1-0.3c-0.2-0.1-0.5-0.2-0.7-0.4c-0.2-0.2-0.3-0.3-0.4-0.5s-0.1-0.4-0.1-0.7
	s0.1-0.5,0.2-0.7c0.1-0.2,0.3-0.4,0.5-0.6c0.2-0.2,0.4-0.3,0.7-0.4s0.6-0.1,0.9-0.1c0.5,0,0.9,0.1,1.3,0.2c0.4,0.1,0.7,0.3,1.1,0.6
	l-0.3,0.4c-0.3-0.3-0.6-0.5-1-0.6c-0.3-0.1-0.7-0.2-1.1-0.2c-0.3,0-0.5,0-0.7,0.1s-0.4,0.2-0.5,0.3c-0.1,0.1-0.3,0.3-0.3,0.4
	c-0.1,0.2-0.1,0.3-0.1,0.5s0,0.3,0.1,0.5c0.1,0.2,0.2,0.3,0.3,0.4c0.1,0.1,0.3,0.2,0.6,0.3c0.3,0.1,0.6,0.2,1,0.3
	c0.8,0.2,1.4,0.4,1.7,0.7c0.3,0.3,0.5,0.7,0.5,1.2c0,0.3-0.1,0.5-0.2,0.8c-0.1,0.2-0.3,0.4-0.5,0.6c-0.2,0.2-0.4,0.3-0.7,0.4
	C221.6,37.4,221.3,37.4,221,37.4z"/>
</svg>
