<?xml version="1.0" encoding="utf-8"?>
<!-- Generator: Adobe Illustrator 27.1.1, SVG Export Plug-In . SVG Version: 6.00 Build 0)  -->
<svg version="1.1" id="Capa_1" xmlns="http://www.w3.org/2000/svg" xmlns:xlink="http://www.w3.org/1999/xlink" x="0px" y="0px"
	 viewBox="0 0 60 60" style="enable-background:new 0 0 60 60;" xml:space="preserve">
<style type="text/css">
	.st0{fill:#D60026;}
</style>
<path class="st0" d="M54.6,40.1c-0.4-0.7-1.5-1.8-4.5-1.3c-1.6,0.3-3.3,0.4-4.8,0.3c-6-0.3-11.4-3-15.2-7.3
	c-3.4-3.8-5.4-8.6-5.4-13.8c0-2.9,0.6-5.8,1.7-8.4c1.1-2.6,0.3-4-0.3-4.6c-0.6-0.6-2-1.5-4.7-0.3C10.8,9.2,4.3,19.7,5.1,31.1
	c0.8,10.7,8.3,19.8,18.1,23.2c2.4,0.9,4.9,1.3,7.5,1.5c0.4,0,0.9,0.1,1.2,0.1c8.7,0,16.8-4,21.8-11C55.5,42.3,55,40.8,54.6,40.1z"/>
</svg>
