<?xml version="1.0" encoding="utf-8"?>
<!-- Generator: Adobe Illustrator 27.1.1, SVG Export Plug-In . SVG Version: 6.00 Build 0)  -->
<svg version="1.1" id="Capa_1" xmlns="http://www.w3.org/2000/svg" xmlns:xlink="http://www.w3.org/1999/xlink" x="0px" y="0px"
	 viewBox="0 0 60 60" style="enable-background:new 0 0 60 60;" xml:space="preserve">
<style type="text/css">
	.st0{fill:#D60026;}
</style>
<g>
	<path class="st0" d="M29.3,12.3c-1.5,0-2.7-1.2-2.7-2.7V2.7c0-1.5,1.2-2.7,2.7-2.7h1.4c1.5,0,2.7,1.2,2.7,2.7v6.8
		c0,1.5-1.2,2.7-2.7,2.7H29.3z"/>
	<path class="st0" d="M42.1,17c-1.1-1.1-1.1-2.8,0-3.9l4.8-4.8c1.1-1.1,2.8-1.1,3.9,0l1,1c1.1,1.1,1.1,2.8,0,3.9l-4.8,4.8
		c-1.1,1.1-2.8,1.1-3.9,0L42.1,17z"/>
	<path class="st0" d="M47.7,29.3c0-1.5,1.2-2.7,2.7-2.7h6.8c1.5,0,2.7,1.2,2.7,2.7v1.4c0,1.5-1.2,2.7-2.7,2.7h-6.8
		c-1.5,0-2.7-1.2-2.7-2.7V29.3z"/>
	<path class="st0" d="M43,42.1c1.1-1.1,2.8-1.1,3.9,0l4.8,4.8c1.1,1.1,1.1,2.8,0,3.9l-1,1c-1.1,1.1-2.8,1.1-3.9,0l-4.8-4.8
		c-1.1-1.1-1.1-2.8,0-3.9L43,42.1z"/>
	<path class="st0" d="M30.7,47.7c1.5,0,2.7,1.2,2.7,2.7v6.8c0,1.5-1.2,2.7-2.7,2.7h-1.4c-1.5,0-2.7-1.2-2.7-2.7v-6.8
		c0-1.5,1.2-2.7,2.7-2.7H30.7z"/>
	<path class="st0" d="M17.9,43c1.1,1.1,1.1,2.8,0,3.9l-4.8,4.8c-1.1,1.1-2.8,1.1-3.9,0l-1-1c-1.1-1.1-1.1-2.8,0-3.9l4.8-4.8
		c1.1-1.1,2.8-1.1,3.9,0L17.9,43z"/>
	<path class="st0" d="M12.3,30.7c0,1.5-1.2,2.7-2.7,2.7H2.7c-1.5,0-2.7-1.2-2.7-2.7v-1.4c0-1.5,1.2-2.7,2.7-2.7h6.8
		c1.5,0,2.7,1.2,2.7,2.7V30.7z"/>
	<path class="st0" d="M17,17.9c-1.1,1.1-2.8,1.1-3.9,0l-4.8-4.8c-1.1-1.1-1.1-2.8,0-3.9l1-1c1.1-1.1,2.8-1.1,3.9,0l4.8,4.8
		c1.1,1.1,1.1,2.8,0,3.9L17,17.9z"/>
	<path class="st0" d="M16.4,30c0-7.5,6.1-13.6,13.6-13.6c7.5,0,13.6,6.1,13.6,13.6c0,7.5-6.1,13.6-13.6,13.6
		C22.5,43.6,16.4,37.5,16.4,30z"/>
</g>
</svg>
